c:\users\suhlr\documents\myrepositories\opencap-processing-grf\examples\GRF_tracking_data\OC_val\OpenSimData\Dynamics\walking1\GRF_resultant_walking1_no_grf_tracking.mot
version=1
nRows=10
nColumns=19
inDegrees=yes
endheader 
time	ground_force_right_vx	ground_force_right_vy	ground_force_right_vz	ground_force_right_px	ground_force_right_py	ground_force_right_pz	ground_torque_right_x	ground_torque_right_y	ground_torque_right_z	ground_force_left_vx	ground_force_left_vy	ground_force_left_vz	ground_force_left_px	ground_force_left_py	ground_force_left_pz	ground_torque_left_x	ground_torque_left_y	ground_torque_left_z	
          0.03900000	        -31.14873261	        244.78435693	        -13.09567936	          0.16720267	          0.00000000	         -0.23827294	          0.00000000	         -0.00954247	          0.00000000	         72.18436571	        477.11673423	          7.20669162	         -0.25631037	          0.00000000	         -0.33931175	          0.00000000	          1.07298576	          0.00000000	
          0.05915094	        -92.12585033	        326.23541382	        -15.44109471	          0.16973763	          0.00000000	         -0.23762561	          0.00000000	         -0.16511136	          0.00000000	        111.11146235	        424.88851060	          8.22635312	         -0.24348370	          0.00000000	         -0.33152487	          0.00000000	          2.45332863	          0.00000000	
          0.07930189	       -122.01262651	        388.29873263	        -18.19108973	          0.17741849	          0.00000000	         -0.23478111	          0.00000000	         -0.71128104	          0.00000000	        126.79876603	        370.22389083	         13.22865876	         -0.23561151	          0.00000000	         -0.32641891	          0.00000000	          2.51093848	          0.00000000	
          0.09945283	       -100.74504896	        451.33347741	        -13.02872789	          0.19033990	          0.00000000	         -0.23133403	          0.00000000	         -1.51454196	          0.00000000	         92.72888989	        299.42470692	         11.77816981	         -0.23492935	          0.00000000	         -0.32705274	          0.00000000	          2.13419119	          0.00000000	
          0.11960377	        -22.83033051	        525.63680914	          3.27153146	          0.20970211	          0.00000000	         -0.23090505	          0.00000000	         -2.61043033	          0.00000000	         -5.14980739	        194.85082088	          2.13989253	         -0.23513117	          0.00000000	         -0.33347964	          0.00000000	          1.06169841	          0.00000000	
          0.13975472	         -3.42283695	        584.22408585	          3.63089220	          0.22310941	          0.00000000	         -0.23097980	          0.00000000	         -2.55943500	          0.00000000	        -61.52425705	         68.29480917	         -8.19472499	         -0.23219782	          0.00000000	         -0.35097838	          0.00000000	         -0.00563557	          0.00000000	
          0.15990566	        -77.36825227	        633.41635994	        -18.78904835	          0.22811063	          0.00000000	         -0.22999116	          0.00000000	         -1.65112903	          0.00000000	          0.09125160	         -0.07764761	         -0.00172175	          0.00000000	          0.00000000	          0.00000000	          0.00000000	         -0.03599491	          0.00000000	
          0.18005660	        -74.21192846	        661.78391911	        -23.74868101	          0.23168760	          0.00000000	         -0.22836013	          0.00000000	         -0.79803947	          0.00000000	          0.00016403	         -0.00010827	         -0.00001019	          0.00000000	          0.00000000	          0.00000000	          0.00000000	         -0.00006200	          0.00000000	
          0.20020755	        -61.63221047	        635.92482270	        -25.33731346	          0.23511036	          0.00000000	         -0.22660778	          0.00000000	         -0.32639242	          0.00000000	          0.00046389	         -0.00024783	         -0.00003666	          0.00000000	          0.00000000	          0.00000000	          0.00000000	         -0.00017136	          0.00000000	
          0.22035849	        -45.49333811	        578.33516088	        -22.47544315	          0.23853907	          0.00000000	         -0.22469739	          0.00000000	         -0.22131857	          0.00000000	         -0.05791901	          0.02608567	          0.00490789	         -0.08305764	          0.00000000	         -0.32362412	          0.00000000	         -0.00000005	          0.00000000	
